<svg xmlns:dc="http://purl.org/dc/elements/1.1/" xmlns:cc="http://creativecommons.org/ns#" xmlns:rdf="http://www.w3.org/1999/02/22-rdf-syntax-ns#" xmlns:svg="http://www.w3.org/2000/svg" xmlns="http://www.w3.org/2000/svg" xmlns:sodipodi="http://sodipodi.sourceforge.net/DTD/sodipodi-0.dtd" xmlns:inkscape="http://www.inkscape.org/namespaces/inkscape" viewBox="0 0 100 125" version="1.1" x="0px" y="0px"><g transform="translate(0,-952.36216)"><path d="m 50.000236,957.36222 c -17.676816,4e-5 -32.006816,14.32999 -32.006816,32.00674 0,17.67674 32.981005,57.99324 32.981005,57.99324 0,0 31.032187,-40.3165 31.032187,-57.99324 0,-17.67675 -14.329706,-32.0067 -32.006376,-32.00674 z m 0,6.49684 a 25.509998,25.509998 0 0 1 25.509872,25.5099 25.509998,25.509998 0 0 1 -25.509872,25.50994 25.509998,25.509998 0 0 1 -25.510165,-25.50994 25.509998,25.509998 0 0 1 25.510165,-25.5099 z" style="opacity:1;fill:#000000;fill-opacity:1;stroke:none;stroke-width:2;stroke-linecap:butt;stroke-linejoin:miter;stroke-miterlimit:4;stroke-dasharray:none;stroke-dashoffset:0;stroke-opacity:1"/><path d="m 45.74303,987.04117 17.825142,-12.3725 -9.31117,17.02811 -17.825142,12.37252 z" style="" fill="#000000" stroke="none"/></g></svg>