<?xml version="1.0" encoding="iso-8859-1"?>
<!-- Generator: Adobe Illustrator 16.0.0, SVG Export Plug-In . SVG Version: 6.00 Build 0)  -->
<!DOCTYPE svg PUBLIC "-//W3C//DTD SVG 1.1//EN" "http://www.w3.org/Graphics/SVG/1.1/DTD/svg11.dtd">
<svg version="1.1" id="Capa_1" xmlns="http://www.w3.org/2000/svg" xmlns:xlink="http://www.w3.org/1999/xlink" x="0px" y="0px"
	 width="409.665px" height="409.665px" viewBox="0 0 409.665 409.665" style="enable-background:new 0 0 409.665 409.665;"
	 xml:space="preserve">
<g fill="#FFFFFF">
	<path d="M204.833,123.605c-18.194,0-32.987,14.808-32.987,33.002s14.793,32.987,32.987,32.987s33.002-14.792,33.002-32.987
		S223.027,123.605,204.833,123.605z"/>
	<path d="M204.833,0C125.272,0,60.538,64.729,60.538,144.31c0,73.868,117.811,236.238,131.253,254.516l4.939,6.72
		c1.889,2.582,4.918,4.119,8.104,4.119c3.197,0,6.232-1.537,8.095-4.096l4.96-6.743c13.427-18.278,131.24-180.648,131.24-254.516
		C349.128,64.734,284.396,0,204.833,0z M204.833,215.836c-32.663,0-59.231-26.559-59.231-59.228
		c0-32.672,26.568-59.247,59.231-59.247c32.666,0,59.243,26.574,59.243,59.247C264.076,189.277,237.499,215.836,204.833,215.836z
		 M295.35,133.285c-1.333,0.453-2.69,0.682-4.023,0.682c-5.093,0-9.86-3.204-11.626-8.302
		c-9.775-28.315-35.271-49.011-64.947-52.707c-6.746-0.844-11.523-6.992-10.688-13.724c0.85-6.741,6.989-11.529,13.727-10.677
		c38.923,4.852,72.346,31.97,85.16,69.091C305.173,124.074,301.763,131.075,295.35,133.285z"/>
</g>
</svg>
