<?xml version="1.0" encoding="UTF-8" standalone="no"?>
<svg
   xmlns:dc="http://purl.org/dc/elements/1.1/"
   xmlns:cc="http://creativecommons.org/ns#"
   xmlns:rdf="http://www.w3.org/1999/02/22-rdf-syntax-ns#"
   xmlns:svg="http://www.w3.org/2000/svg"
   xmlns="http://www.w3.org/2000/svg"
   version="1.1"
   x="0px"
   y="0px"
   viewBox="0 0 100 100"
   enable-background="new 0 0 100 100"
   xml:space="preserve"
   id="svg2"><metadata
     id="metadata10"><rdf:RDF><cc:Work
         rdf:about=""><dc:format>image/svg+xml</dc:format><dc:type
           rdf:resource="http://purl.org/dc/dcmitype/StillImage" /><dc:title></dc:title></cc:Work></rdf:RDF></metadata><defs
     id="defs8" /><g
     transform="translate(0,0.1205)"
     id="g4"><g
       transform="matrix(1.9155249,0,0,1.9155249,-42.919754,-44.36855)"
       id="g6"><g
         id="g8"><path
           style="fill:#2d728f"
           id="path10"
           d="m 53.498,74.064 c -1.022,0 -1.879,-0.799 -1.939,-1.832 -0.062,-1.071 0.756,-1.992 1.828,-2.053 2.732,-0.16 5.207,-0.736 7.355,-1.717 1.958,-0.895 3.693,-2.043 5.176,-3.424 l -4.421,-4.161 c -0.862,0.824 -1.858,1.534 -2.982,2.125 -1.827,0.962 -3.974,1.452 -6.378,1.452 -2.062,0 -3.997,-0.385 -5.752,-1.143 -1.759,-0.76 -3.293,-1.837 -4.56,-3.201 -1.253,-1.345 -2.245,-2.978 -2.948,-4.851 -0.695,-1.854 -1.047,-3.903 -1.047,-6.098 0,-2.154 0.354,-4.175 1.049,-6.011 0.703,-1.848 1.704,-3.478 2.979,-4.848 1.281,-1.376 2.831,-2.471 4.605,-3.253 3.407,-1.494 7.689,-1.617 11.517,-0.049 1.207,0.496 2.279,1.164 3.205,1.997 l 4.312,-4.314 c -1.419,-1.228 -3.142,-2.215 -5.141,-2.946 -5.73,-2.092 -11.947,-1.917 -17.014,-0.034 -2.616,0.972 -4.924,2.379 -6.856,4.183 -1.925,1.796 -3.457,4.006 -4.552,6.569 -1.101,2.574 -1.659,5.504 -1.659,8.709 0,3.132 0.549,6.021 1.632,8.597 1.081,2.574 2.589,4.811 4.483,6.648 1.892,1.836 4.168,3.279 6.763,4.289 1.401,0.543 2.894,0.945 4.436,1.199 1.061,0.175 1.778,1.175 1.605,2.232 -0.175,1.061 -1.177,1.777 -2.233,1.604 -1.807,-0.296 -3.562,-0.772 -5.215,-1.412 -3.083,-1.2 -5.795,-2.923 -8.063,-5.123 -2.271,-2.204 -4.074,-4.873 -5.358,-7.933 -1.285,-3.053 -1.937,-6.451 -1.937,-10.103 0,-3.732 0.663,-7.178 1.972,-10.237 1.309,-3.064 3.15,-5.717 5.474,-7.885 2.312,-2.155 5.055,-3.833 8.155,-4.984 5.93,-2.202 13.108,-2.381 19.705,0.028 3.268,1.196 5.965,2.98 8.018,5.307 0.678,0.77 0.643,1.935 -0.084,2.66 l -7.135,7.136 c -0.4,0.403 -0.963,0.604 -1.525,0.564 -0.568,-0.045 -1.086,-0.335 -1.42,-0.794 -0.775,-1.066 -1.771,-1.838 -3.041,-2.359 -2.859,-1.171 -6.036,-1.062 -8.475,0.011 -1.289,0.567 -2.407,1.356 -3.326,2.343 -0.932,1.001 -1.669,2.205 -2.191,3.579 -0.528,1.393 -0.796,2.95 -0.796,4.631 0,1.726 0.268,3.317 0.799,4.731 0.524,1.395 1.248,2.596 2.155,3.57 0.9,0.968 1.994,1.734 3.254,2.279 1.266,0.547 2.683,0.822 4.211,0.822 1.766,0 3.302,-0.338 4.569,-1.006 1.298,-0.682 2.306,-1.535 3.079,-2.613 0.329,-0.453 0.836,-0.745 1.393,-0.8 0.556,-0.052 1.111,0.136 1.52,0.521 l 7.318,6.891 c 0.762,0.715 0.82,1.902 0.135,2.69 -2.102,2.414 -4.725,4.348 -7.794,5.751 -2.589,1.181 -5.529,1.874 -8.744,2.06 -0.04,0.004 -0.077,0.006 -0.116,0.006 z" /></g></g></g></svg>