<svg xmlns="http://www.w3.org/2000/svg" xmlns:xlink="http://www.w3.org/1999/xlink" version="1.1" x="0px" y="0px" viewBox="0 0 100 125" enable-background="new 0 0 100 100" xml:space="preserve"><g><g><g><path fill="#2D728F" d="M53.498,74.064c-1.022,0-1.879-0.799-1.939-1.832c-0.062-1.071,0.756-1.992,1.828-2.053     c2.732-0.16,5.207-0.736,7.355-1.717c1.958-0.895,3.693-2.043,5.176-3.424l-4.421-4.161c-0.862,0.824-1.858,1.534-2.982,2.125     c-1.827,0.962-3.974,1.452-6.378,1.452c-2.062,0-3.997-0.385-5.752-1.143c-1.759-0.76-3.293-1.837-4.56-3.201     c-1.253-1.345-2.245-2.978-2.948-4.851c-0.695-1.854-1.047-3.903-1.047-6.098c0-2.154,0.354-4.175,1.049-6.011     c0.703-1.848,1.704-3.478,2.979-4.848c1.281-1.376,2.831-2.471,4.605-3.253C49.87,33.555,54.152,33.432,57.98,35     c1.207,0.496,2.279,1.164,3.205,1.997l4.312-4.314c-1.419-1.228-3.142-2.215-5.141-2.946c-5.73-2.092-11.947-1.917-17.014-0.034     c-2.616,0.972-4.924,2.379-6.856,4.183c-1.925,1.796-3.457,4.006-4.552,6.569c-1.101,2.574-1.659,5.504-1.659,8.709     c0,3.132,0.549,6.021,1.632,8.597c1.081,2.574,2.589,4.811,4.483,6.648c1.892,1.836,4.168,3.279,6.763,4.289     c1.401,0.543,2.894,0.945,4.436,1.199c1.061,0.175,1.778,1.175,1.605,2.232c-0.175,1.061-1.177,1.777-2.233,1.604     c-1.807-0.296-3.562-0.772-5.215-1.412c-3.083-1.2-5.795-2.923-8.063-5.123c-2.271-2.204-4.074-4.873-5.358-7.933     c-1.285-3.053-1.937-6.451-1.937-10.103c0-3.732,0.663-7.178,1.972-10.237c1.309-3.064,3.15-5.717,5.474-7.885     c2.312-2.155,5.055-3.833,8.155-4.984c5.93-2.202,13.108-2.381,19.705,0.028c3.268,1.196,5.965,2.98,8.018,5.307     c0.678,0.77,0.643,1.935-0.084,2.66l-7.135,7.136c-0.4,0.403-0.963,0.604-1.525,0.564c-0.568-0.045-1.086-0.335-1.42-0.794     c-0.775-1.066-1.771-1.838-3.041-2.359c-2.859-1.171-6.036-1.062-8.475,0.011c-1.289,0.567-2.407,1.356-3.326,2.343     c-0.932,1.001-1.669,2.205-2.191,3.579c-0.528,1.393-0.796,2.95-0.796,4.631c0,1.726,0.268,3.317,0.799,4.731     c0.524,1.395,1.248,2.596,2.155,3.57c0.9,0.968,1.994,1.734,3.254,2.279c1.266,0.547,2.683,0.822,4.211,0.822     c1.766,0,3.302-0.338,4.569-1.006c1.298-0.682,2.306-1.535,3.079-2.613c0.329-0.453,0.836-0.745,1.393-0.8     c0.556-0.052,1.111,0.136,1.52,0.521l7.318,6.891c0.762,0.715,0.82,1.902,0.135,2.69c-2.102,2.414-4.725,4.348-7.794,5.751     c-2.589,1.181-5.529,1.874-8.744,2.06C53.574,74.062,53.537,74.064,53.498,74.064z"/></g></g><g><path fill="#2D728F" d="M47.281,90.656c-0.045,0-0.091-0.001-0.136-0.004C25.854,89.18,9.176,71.293,9.176,49.927    C9.176,27.416,27.49,9.103,50,9.103c22.51,0,40.824,18.313,40.824,40.824c0,21.292-15.973,38.772-37.154,40.659    c-1.059,0.092-2.014-0.693-2.108-1.764c-0.095-1.067,0.695-2.012,1.765-2.107c19.16-1.709,33.609-17.523,33.609-36.788    c0-20.367-16.57-36.937-36.936-36.937c-20.367,0-36.936,16.569-36.936,36.937c0,19.331,15.087,35.514,34.349,36.844    c1.071,0.075,1.88,1.002,1.805,2.074C49.147,89.871,48.294,90.656,47.281,90.656z"/></g></g></svg>