<?xml version="1.0" encoding="iso-8859-1"?>
<!-- Generator: Adobe Illustrator 16.0.0, SVG Export Plug-In . SVG Version: 6.00 Build 0)  -->
<!DOCTYPE svg PUBLIC "-//W3C//DTD SVG 1.1//EN" "http://www.w3.org/Graphics/SVG/1.1/DTD/svg11.dtd">
<svg xmlns="http://www.w3.org/2000/svg" xmlns:xlink="http://www.w3.org/1999/xlink" version="1.1" id="document" x="0px" y="0px" width="512px" height="512px" viewBox="0 0 415.16 415.16" style="enable-background:new 0 0 415.16 415.16;" xml:space="preserve">
<g>
	<g>
		<path d="M351.07,101.536h-90.449V11.088c0-5.99-4.873-10.863-10.863-10.863H63.396c-5.99,0-10.863,4.873-10.863,10.863v393.21    c0,5.989,4.873,10.862,10.863,10.862H351.07c5.99,0,10.862-4.873,10.862-10.862v-291.9    C361.933,106.409,357.06,101.536,351.07,101.536z" fill="#FFFFFF"/>
		<path d="M296.546,75.329h56.822c3.756,0,7.111-2.242,8.549-5.712c1.439-3.472,0.65-7.432-2.006-10.087L303.089,2.709    C301.343,0.962,299.018,0,296.542,0c-1.219,0-2.408,0.236-3.541,0.704c-3.469,1.438-5.709,4.795-5.709,8.55v56.821    C287.292,71.178,291.445,75.329,296.546,75.329z" fill="#FFFFFF"/>
	</g>
</g>
<g>
</g>
<g>
</g>
<g>
</g>
<g>
</g>
<g>
</g>
<g>
</g>
<g>
</g>
<g>
</g>
<g>
</g>
<g>
</g>
<g>
</g>
<g>
</g>
<g>
</g>
<g>
</g>
<g>
</g>
</svg>
