<?xml version="1.0" encoding="UTF-8" standalone="no"?>
<svg
   xmlns:dc="http://purl.org/dc/elements/1.1/"
   xmlns:cc="http://creativecommons.org/ns#"
   xmlns:rdf="http://www.w3.org/1999/02/22-rdf-syntax-ns#"
   xmlns:svg="http://www.w3.org/2000/svg"
   xmlns="http://www.w3.org/2000/svg"
   id="svg2"
   xml:space="preserve"
   enable-background="new 0 0 48 48"
   viewBox="0 0 48 48"
   y="0px"
   x="0px"
   version="1.1"><metadata
     id="metadata20"><rdf:RDF><cc:Work
         rdf:about=""><dc:format>image/svg+xml</dc:format><dc:type
           rdf:resource="http://purl.org/dc/dcmitype/StillImage" /><dc:title></dc:title></cc:Work></rdf:RDF></metadata><defs
     id="defs18" /><g
     id="g4"
     transform="translate(5.9451955e-4,-5.9857316e-4)"><circle
       id="circle8"
       r="1.7541143"
       cy="45.008751"
       cx="-40.253334"
       style="fill:#ffffff;fill-opacity:1"
       transform="scale(-1,1)" /><path
       id="path12"
       d="M 0.81881096,15.403 15.331811,0.894 c 1.189,-1.191 3.002,-1.073 4.028,0.26 l 19.399,25.202 c 0.278,0.36 0.447,0.779 0.557,1.216 -0.082,0.713 -0.406,1.452 -0.959,2.005 l -8.852,8.851 c -0.554,0.553 -1.295,0.878 -2.009,0.96 -0.434,-0.108 -0.853,-0.279 -1.212,-0.556 l -25.204,-19.399 c -1.33200004,-1.026 -1.44900004,-2.838 -0.26100004,-4.03 z"
       style="fill:#ffffff;fill-opacity:1" /><path
       id="path14"
       d="m 39.826811,31.048 c 0.316,-0.316 0.57,-0.677 0.793,-1.053 2.118,2.999 1.842,7.171 -0.842,9.855 -2.685,2.684 -6.856,2.961 -9.856,0.842 0.377,-0.223 0.737,-0.478 1.054,-0.793 l 8.851,-8.851 z"
       style="fill:#ffffff;fill-opacity:1" /><circle
       id="circle8-3"
       r="1.7541143"
       cy="40.845638"
       cx="-44.331406"
       style="fill:#ffffff;fill-opacity:1"
       transform="scale(-1,1)" /><circle
       id="circle8-6"
       r="1.7541143"
       cy="45.663551"
       cx="-45.122406"
       style="fill:#ffffff;fill-opacity:1"
       transform="scale(-1,1)" /></g></svg>