<svg xmlns="http://www.w3.org/2000/svg" xmlns:xlink="http://www.w3.org/1999/xlink" version="1.1" x="0px" y="0px" viewBox="0 0 48 48" enable-background="new 0 0 48 48" xml:space="preserve"><g><path fill="#ffffff" d="M24.2,36.9c-0.9,0-1.8-0.3-2.5-0.9L1.9,19.4c-0.8-0.7-1.3-1.7-1.4-2.8c0-1.1,0.4-2.2,1.1-2.9l12-12   c0.7-0.7,1.7-1.1,2.8-1.1c1.2,0,2.3,0.5,3,1.4l16.6,19.8c1.3,1.6,1.2,3.8-0.2,5.3l-8.8,8.8C26.2,36.4,25.2,36.9,24.2,36.9z    M16.4,2.5c-0.5,0-1,0.2-1.3,0.6l-12,12c-0.4,0.4-0.6,0.9-0.6,1.4c0,0.5,0.3,1,0.7,1.4l19.8,16.6c0.7,0.6,1.9,0.6,2.6-0.1l8.8-8.8   c0.7-0.7,0.8-1.8,0.1-2.6L17.8,3.2C17.5,2.7,16.9,2.5,16.4,2.5z"/><path fill="#ffffff" d="M30.5,39.9c-2.5,0-4.9-1-6.6-2.7c-0.2-0.2-0.3-0.4-0.3-0.7c0-0.3,0.1-0.5,0.3-0.7l11.9-11.8   c0.2-0.2,0.4-0.3,0.7-0.3l0,0c0.3,0,0.5,0.1,0.7,0.3c1.8,1.8,2.7,4.1,2.7,6.6c0,2.5-1,4.9-2.7,6.6C35.3,38.9,33,39.9,30.5,39.9z    M26,36.3c1.3,1,2.8,1.5,4.5,1.5c2,0,3.8-0.8,5.2-2.2c1.4-1.4,2.2-3.2,2.2-5.2c0-1.6-0.5-3.2-1.5-4.5L26,36.3z"/><path fill="#ffffff" d="M42.2,43.2c-0.3,0-0.5-0.1-0.7-0.3l-2.7-2.7c-0.4-0.4-0.4-1,0-1.4c0.4-0.4,1-0.4,1.4,0l2.7,2.7   c0.4,0.4,0.4,1,0,1.4C42.7,43.1,42.4,43.2,42.2,43.2z"/><path fill="#ffffff" d="M46.5,37.5c-0.2,0-0.3,0-0.5-0.1l-3.3-1.8c-0.5-0.3-0.7-0.9-0.4-1.4c0.3-0.5,0.9-0.7,1.4-0.4l3.3,1.8   c0.5,0.3,0.7,0.9,0.4,1.4C47.2,37.3,46.9,37.5,46.5,37.5z"/><path fill="#ffffff" d="M36.5,47.5c-0.4,0-0.7-0.2-0.9-0.5l-1.8-3.3c-0.3-0.5-0.1-1.1,0.4-1.4c0.5-0.3,1.1-0.1,1.4,0.4l1.8,3.3   c0.3,0.5,0.1,1.1-0.4,1.4C36.8,47.5,36.7,47.5,36.5,47.5z"/></g></svg>