<svg xmlns="http://www.w3.org/2000/svg" xmlns:xlink="http://www.w3.org/1999/xlink" version="1.1" x="0px" y="0px" viewBox="0 0 100 100" enable-background="new 0 0 100 100" xml:space="preserve"><polygon fill="#ffffff" points="5,81.865 5,81.856 5,81.856 "/><path fill="#ffffff" d="M94.974,49.833l-0.213-1.379l-0.346-1.326L94.1,46.542l-0.506-0.452L36.092,18.135L6.672,30.156L5,81.856  h7.146l-0.9-51.284l0.479-0.187l13.711,18.991l63.242,11.808l0.56,0.027l0.532-0.129l0.479-0.24l1.034-0.931L92.21,58.9l0.799-1.145  l0.829-1.464l0.511-1.247l0.306-1.086l0.239-1.357L95,51.218L94.974,49.833z M26.475,33.745l-0.555,2.205l-0.426,2.209l-0.266,2.263  l-0.133,2.258v2.258L13.883,29.329l-0.006,0.002l0.004-0.005l0.002,0.002l18.753-7.605l-1.354,1.836l-1.197,1.917l-1.118,1.97  l-0.954,2.044l-0.82,2.103L26.475,33.745z M41.991,27.734l-1.224,1.677l-1.087,1.783l-0.958,1.863l-0.799,1.912l-0.661,1.965  l-0.528,2.023l-0.373,2.049l-0.213,2.072l-0.08,2.103l0.08,2.075l0.239,2.067l-8.503-1.539l-0.187-2.099l-0.08-2.103l0.053-2.098  l0.213-2.103l0.346-2.076l0.444-2.076l0.612-2.014l0.746-1.97l0.852-1.916l0.98-1.864l1.118-1.778l1.225-1.73l1.326-1.649  l1.411-1.544l7.785,3.859l-1.437,1.491L41.991,27.734z M59.048,33.359l-1.118,1.326l-0.976,1.406l-0.905,1.464l-0.799,1.544  l-0.665,1.597l-0.533,1.646l-0.421,1.676l-0.293,1.704l-0.159,1.729l-0.026,1.722l0.106,1.729l0.239,1.703l-8.504-1.543l-0.239-1.89  l-0.075-1.907l0.026-1.917l0.222-2.146l0.28-1.659l0.475-1.858l0.585-1.837l0.745-1.757l0.852-1.729l0.98-1.646l1.091-1.566  l1.198-1.49l1.321-1.384l7.812,3.859L59.048,33.359z M74.781,40.664l-1.033,1.087l-0.932,1.17l-0.82,1.273l-0.666,1.331l-0.554,1.41  l-0.399,1.438L70.11,49.86l-0.106,1.49l0.026,1.491l0.187,1.489l0.346,1.46l-8.503-1.539l-0.293-1.544l-0.159-1.544l-0.027-1.57  l0.106-1.565l0.239-1.544l0.347-1.539l0.501-1.49l0.612-1.438l0.719-1.38l0.847-1.331l0.954-1.224l1.064-1.171l1.14-1.065  l7.816,3.859L74.781,40.664z M89.823,48.006l-0.798,1.225l-0.666,1.3l-0.532,1.357l-0.368,1.438l-0.208,1.437l-0.054,1.459  l0.106,1.46l0.262,1.438l-8.477-1.544l-0.342-1.273l-0.213-1.326l-0.054-1.304l0.054-1.331l0.187-1.304l0.346-1.278l0.443-1.241  l0.586-1.198l0.692-1.118l0.825-1.038l0.899-0.958l1.012-0.878v-0.005l7.227,3.567L89.823,48.006z"/></svg>